<svg width="61" height="61" viewBox="0 0 61 61" fill="none" xmlns="http://www.w3.org/2000/svg">
<circle cx="30.5" cy="30.5" r="30.5" fill="#FFBD12"/>
<circle cx="30.5" cy="30.5" r="30.5" fill="#FFBD12"/>
<path d="M18.6937 38.8675C15.9637 38.8675 13.8374 38.1237 12.3149 36.6362C10.8099 35.1487 10.0574 33.04 10.0574 30.31V20.125H15.2549V30.1525C15.2549 33.0925 16.4187 34.5625 18.7462 34.5625C21.0562 34.5625 22.2112 33.0925 22.2112 30.1525V20.125H27.3299V30.31C27.3299 33.04 26.5687 35.1487 25.0462 36.6362C23.5412 38.1237 21.4237 38.8675 18.6937 38.8675ZM39.5659 24.0363C40.8609 24.0363 42.0334 24.3425 43.0834 24.955C44.1509 25.55 44.9909 26.4075 45.6034 27.5275C46.2334 28.63 46.5484 29.9162 46.5484 31.3862C46.5484 32.8562 46.2334 34.1512 45.6034 35.2712C44.9909 36.3737 44.1509 37.2312 43.0834 37.8437C42.0334 38.4388 40.8609 38.7363 39.5659 38.7363C37.9034 38.7363 36.5822 38.2375 35.6022 37.24V43.5925H30.6147V24.2725H35.3659V25.69C36.2934 24.5875 37.6934 24.0363 39.5659 24.0363ZM38.5159 34.7725C39.3909 34.7725 40.1084 34.475 40.6684 33.88C41.2284 33.2675 41.5084 32.4362 41.5084 31.3862C41.5084 30.3362 41.2284 29.5137 40.6684 28.9187C40.1084 28.3062 39.3909 28 38.5159 28C37.6409 28 36.9234 28.3062 36.3634 28.9187C35.8034 29.5137 35.5234 30.3362 35.5234 31.3862C35.5234 32.4362 35.8034 33.2675 36.3634 33.88C36.9234 34.475 37.6409 34.7725 38.5159 34.7725ZM50.8897 38.7363C50.0497 38.7363 49.341 38.4562 48.7635 37.8962C48.186 37.3362 47.8972 36.6275 47.8972 35.77C47.8972 34.895 48.1772 34.1862 48.7372 33.6437C49.3147 33.1012 50.0322 32.83 50.8897 32.83C51.7647 32.83 52.4822 33.1012 53.0422 33.6437C53.6022 34.1862 53.8822 34.895 53.8822 35.77C53.8822 36.6275 53.5935 37.3362 53.016 37.8962C52.456 38.4562 51.7472 38.7363 50.8897 38.7363Z" fill="black"/>
<path d="M17.6694 40.3395C15.1474 40.3395 13.1832 39.6524 11.7767 38.2782C10.3863 36.9041 9.69116 34.956 9.69116 32.434V23.025H14.4927V32.2885C14.4927 35.0045 15.5677 36.3625 17.7179 36.3625C19.8519 36.3625 20.9189 35.0045 20.9189 32.2885V23.025H25.6477V32.434C25.6477 34.956 24.9444 36.9041 23.5379 38.2782C22.1476 39.6524 20.1914 40.3395 17.6694 40.3395ZM36.9514 26.6383C38.1477 26.6383 39.2309 26.9212 40.2009 27.487C41.187 28.0367 41.963 28.8288 42.5289 29.8635C43.1109 30.882 43.4019 32.0702 43.4019 33.4282C43.4019 34.7862 43.1109 35.9826 42.5289 37.0172C41.963 38.0357 41.187 38.8279 40.2009 39.3937C39.2309 39.9434 38.1477 40.2183 36.9514 40.2183C35.4155 40.2183 34.195 39.7575 33.2896 38.836V44.7045H28.6821V26.8565H33.0714V28.166C33.9282 27.1475 35.2215 26.6383 36.9514 26.6383ZM35.9814 36.5565C36.7897 36.5565 37.4525 36.2817 37.9699 35.732C38.4872 35.1662 38.7459 34.3982 38.7459 33.4282C38.7459 32.4582 38.4872 31.6984 37.9699 31.1487C37.4525 30.5829 36.7897 30.3 35.9814 30.3C35.173 30.3 34.5102 30.5829 33.9929 31.1487C33.4755 31.6984 33.2169 32.4582 33.2169 33.4282C33.2169 34.3982 33.4755 35.1662 33.9929 35.732C34.5102 36.2817 35.173 36.5565 35.9814 36.5565ZM47.4124 40.2183C46.6364 40.2183 45.9817 39.9596 45.4482 39.4422C44.9147 38.9249 44.6479 38.2702 44.6479 37.478C44.6479 36.6697 44.9066 36.0149 45.4239 35.5137C45.9574 35.0126 46.6202 34.762 47.4124 34.762C48.2207 34.762 48.8836 35.0126 49.4009 35.5137C49.9182 36.0149 50.1769 36.6697 50.1769 37.478C50.1769 38.2702 49.9102 38.9249 49.3767 39.4422C48.8593 39.9596 48.2046 40.2183 47.4124 40.2183Z" fill="white"/>
</svg>
